<svg width="1280" height="919" xmlns="http://www.w3.org/2000/svg" xmlns:xlink="http://www.w3.org/1999/xlink" overflow="hidden"><defs><clipPath id="clip0"><rect x="0" y="0" width="1280" height="919"/></clipPath></defs><g clip-path="url(#clip0)"><rect x="0" y="0" width="1280" height="919.5" fill="#FFFFFF"/><rect x="637" y="660.359" width="596" height="207.113" fill="#F2F2F2"/><rect x="47" y="660.359" width="593" height="207.113" fill="#D9D9D9"/><rect x="637" y="61.0332" width="596" height="91.0495" fill="#F2F2F2"/><rect x="47" y="61.0332" width="593" height="91.0495" fill="#D9D9D9"/><rect x="637" y="357.194" width="596" height="160.087" fill="#F2F2F2"/><rect x="47" y="357.194" width="593" height="160.087" fill="#D9D9D9"/><text fill="#FF0000" font-family="Aptos,Aptos_MSFontService,sans-serif" font-weight="700" font-size="24" transform="matrix(1 0 0 1.00054 338.816 46)">NO</text><path d="M81 186.602C81 183.01 83.9101 180.098 87.5 180.098L312.5 180.098C316.09 180.098 319 183.01 319 186.602L319 212.616C319 216.207 316.09 219.119 312.5 219.119L87.5 219.119C83.9101 219.119 81 216.207 81 212.616Z" stroke="#000000" stroke-width="6" stroke-miterlimit="8" fill="#FF0000" fill-rule="evenodd"/><text fill="#FFFFFF" font-family="Aptos,Aptos_MSFontService,sans-serif" font-weight="700" font-size="19" transform="matrix(1 0 0 1.00054 92.7512 206)">flag_loaders = [‘GPcoef’, ]</text><path d="M81 234.628C81 231.036 83.9101 228.124 87.5 228.124L312.5 228.124C316.09 228.124 319 231.036 319 234.628L319 260.642C319 264.234 316.09 267.145 312.5 267.145L87.5 267.145C83.9101 267.145 81 264.234 81 260.642Z" stroke="#000000" stroke-width="6" stroke-miterlimit="8" fill="#FF0000" fill-rule="evenodd"/><text fill="#FFFFFF" font-family="Aptos,Aptos_MSFontService,sans-serif" font-weight="700" font-size="19" transform="matrix(1 0 0 1.00054 104.668 254)">flag_loaders = [‘POD’, ]</text><path d="M81 281.653C81 278.061 83.9101 275.15 87.5 275.15L312.5 275.15C316.09 275.15 319 278.061 319 281.653L319 307.667C319 311.259 316.09 314.171 312.5 314.171L87.5 314.171C83.9101 314.171 81 311.259 81 307.667Z" stroke="#000000" stroke-width="6" stroke-miterlimit="8" fill="#FF0000" fill-rule="evenodd"/><text fill="#FFFFFF" font-family="Aptos,Aptos_MSFontService,sans-serif" font-weight="700" font-size="19" transform="matrix(1 0 0 1.00054 101.064 300)">flag_loaders = [‘PODr’, ]</text><path d="M690 181.599C690 178.007 692.91 175.095 696.5 175.095L977.5 175.095C981.09 175.095 984 178.007 984 181.599L984 207.613C984 211.205 981.09 214.116 977.5 214.116L696.5 214.116C692.91 214.116 690 211.205 690 207.613Z" stroke="#000000" stroke-width="6" stroke-miterlimit="8" fill="#00B050" fill-rule="evenodd"/><text fill="#FFFFFF" font-family="Aptos,Aptos_MSFontService,sans-serif" font-weight="700" font-size="19" transform="matrix(1 0 0 1.00054 703.197 201)">flag_loaders = [‘GPcoef’, ‘stats’]</text><path d="M690 230.459C690 226.959 692.836 224.122 696.333 224.122L977.667 224.122C981.164 224.122 984 226.959 984 230.459L984 255.806C984 259.306 981.164 262.143 977.667 262.143L696.333 262.143C692.836 262.143 690 259.306 690 255.806Z" stroke="#000000" stroke-width="6" stroke-miterlimit="8" fill="#00B050" fill-rule="evenodd"/><text fill="#FFFFFF" font-family="Aptos,Aptos_MSFontService,sans-serif" font-weight="700" font-size="19" transform="matrix(1 0 0 1.00054 713.196 249)">flag_loaders = [‘POD’, ‘stats’]</text><path d="M690 277.651C690 274.059 692.91 271.148 696.5 271.148L977.5 271.148C981.09 271.148 984 274.059 984 277.651L984 303.665C984 307.257 981.09 310.169 977.5 310.169L696.5 310.169C692.91 310.169 690 307.257 690 303.665Z" stroke="#000000" stroke-width="6" stroke-miterlimit="8" fill="#00B050" fill-rule="evenodd"/><text fill="#FFFFFF" font-family="Aptos,Aptos_MSFontService,sans-serif" font-weight="700" font-size="19" transform="matrix(1 0 0 1.00054 710.103 297)">flag_loaders = [‘PODr’, ‘stats’ ]</text><path d="M81 402.719C81 399.127 83.9101 396.216 87.5 396.216L312.5 396.216C316.09 396.216 319 399.127 319 402.719L319 428.733C319 432.325 316.09 435.237 312.5 435.237L87.5 435.237C83.9101 435.237 81 432.325 81 428.733Z" stroke="#000000" stroke-width="6" stroke-miterlimit="8" fill="#FF0000" fill-rule="evenodd"/><text fill="#FFFFFF" font-family="Aptos,Aptos_MSFontService,sans-serif" font-weight="700" font-size="19" transform="matrix(1 0 0 1.00054 118.378 422)">flag_train_res = ‘TR’</text><path d="M81 450.745C81 447.153 83.9101 444.242 87.5 444.242L312.5 444.242C316.09 444.242 319 447.153 319 450.745L319 476.759C319 480.351 316.09 483.263 312.5 483.263L87.5 483.263C83.9101 483.263 81 480.351 81 476.759Z" stroke="#000000" stroke-width="6" stroke-miterlimit="8" fill="#FF0000" fill-rule="evenodd"/><text fill="#FFFFFF" font-family="Aptos,Aptos_MSFontService,sans-serif" font-weight="700" font-size="19" transform="matrix(1 0 0 1.00054 121.391 470)">flag_test_res = ‘TR’</text><path d="M690 401.552C690 398.052 692.836 395.215 696.333 395.215L921.667 395.215C925.164 395.215 928 398.052 928 401.552L928 426.899C928 430.399 925.164 433.236 921.667 433.236L696.333 433.236C692.836 433.236 690 430.399 690 426.899Z" stroke="#000000" stroke-width="6" stroke-miterlimit="8" fill="#00B050" fill-rule="evenodd"/><text fill="#FFFFFF" font-family="Aptos,Aptos_MSFontService,sans-serif" font-weight="700" font-size="19" transform="matrix(1 0 0 1.00054 706.122 420)">flag_train_res = ‘NTR/TR’</text><path d="M690 449.578C690 446.078 692.836 443.241 696.333 443.241L921.667 443.241C925.164 443.241 928 446.078 928 449.578L928 474.925C928 478.425 925.164 481.262 921.667 481.262L696.333 481.262C692.836 481.262 690 478.425 690 474.925Z" stroke="#000000" stroke-width="6" stroke-miterlimit="8" fill="#00B050" fill-rule="evenodd"/><text fill="#FFFFFF" font-family="Aptos,Aptos_MSFontService,sans-serif" font-weight="700" font-size="19" transform="matrix(1 0 0 1.00054 709.135 468)">flag_test_res = ‘NTR/TR’</text><path d="M332 435.237 370.799 435.237 370.799 439.239 332 439.239ZM368.799 431.235 380.799 437.238 368.799 443.241Z" fill="#FF0000"/><text font-family="Aptos,Aptos_MSFontService,sans-serif" font-weight="400" font-size="19" transform="matrix(1 0 0 1.00054 348.984 423)">IF</text><text font-family="Aptos,Aptos_MSFontService,sans-serif" font-weight="700" font-size="19" transform="matrix(1 0 0 1.00054 403.65 427)">path_test/path_train</text><text font-family="Aptos,Aptos_MSFontService,sans-serif" font-weight="700" font-size="19" transform="matrix(1 0 0 1.00054 409.183 450)">have NTR datasets,</text><text font-family="Aptos,Aptos_MSFontService,sans-serif" font-weight="700" font-size="19" transform="matrix(1 0 0 1.00054 436.916 472)">or viceversa!</text><path d="M624 435.237 662.799 435.237 662.799 439.239 624 439.239ZM660.799 431.235 672.799 437.238 660.799 443.241Z"/><text font-family="Aptos,Aptos_MSFontService,sans-serif" font-weight="700" font-size="19" transform="matrix(1 0 0 1.00054 1002.43 431)">be consistent with</text><text font-family="Aptos,Aptos_MSFontService,sans-serif" font-weight="700" font-size="19" transform="matrix(1 0 0 1.00054 992.877 454)">your data limitations</text><text font-family="Aptos,Aptos_MSFontService,sans-serif" font-weight="700" font-size="19" transform="matrix(1 0 0 1.00054 1025.03 197)">always load any of</text><text font-family="Aptos,Aptos_MSFontService,sans-serif" font-weight="700" font-size="19" transform="matrix(1 0 0 1.00054 1023.17 220)">those 3 with ‘stats’</text><text font-family="Aptos,Aptos_MSFontService,sans-serif" font-weight="700" font-size="19" transform="matrix(1 0 0 1.00054 1011.54 264)">be sure to save ‘stats’</text><text font-family="Aptos,Aptos_MSFontService,sans-serif" font-weight="700" font-size="19" transform="matrix(1 0 0 1.00054 1005.66 287)">with any of those 3, if it</text><text font-family="Aptos,Aptos_MSFontService,sans-serif" font-weight="700" font-size="19" transform="matrix(1 0 0 1.00054 1010.01 309)">does not already exist</text><path d="M624 244.133 662.799 244.133 662.799 248.135 624 248.135ZM660.799 240.131 672.799 246.134 660.799 252.137Z"/><path d="M81 97.5531C81 93.9613 83.9101 91.0495 87.5 91.0495L312.5 91.0495C316.09 91.0495 319 93.9613 319 97.5531L319 123.567C319 127.159 316.09 130.071 312.5 130.071L87.5 130.071C83.9101 130.071 81 127.159 81 123.567Z" stroke="#000000" stroke-width="6" stroke-miterlimit="8" fill="#FF0000" fill-rule="evenodd"/><text fill="#FFFFFF" font-family="Aptos,Aptos_MSFontService,sans-serif" font-weight="700" font-size="19" transform="matrix(1 0 0 1.00054 118.251 116)">flag_loaders = [‘X’, ]</text><path d="M332 110.06 370.799 110.06 370.799 114.062 332 114.062ZM368.799 106.058 380.799 112.061 368.799 118.064Z" fill="#FF0000"/><text font-family="Aptos,Aptos_MSFontService,sans-serif" font-weight="400" font-size="19" transform="matrix(1 0 0 1.00054 348.984 98)">IF</text><text font-family="Aptos,Aptos_MSFontService,sans-serif" font-weight="700" font-size="19" transform="matrix(1 0 0 1.00054 411.516 114)">‘X’ is not available!</text><text fill="#00B050" font-family="Aptos,Aptos_MSFontService,sans-serif" font-weight="700" font-size="24" transform="matrix(1 0 0 1.00054 940.596 49)">YES</text><path d="M81 541.795C81 537.651 84.358 534.291 88.5002 534.291L311.5 534.291C315.642 534.291 319 537.651 319 541.795L319 571.811C319 575.955 315.642 579.315 311.5 579.315L88.5002 579.315C84.358 579.315 81 575.955 81 571.811Z" stroke="#000000" stroke-width="6" stroke-miterlimit="8" fill="#FF0000" fill-rule="evenodd"/><text fill="#FFFFFF" font-family="Aptos,Aptos_MSFontService,sans-serif" font-weight="700" font-size="19" transform="matrix(1 0 0 1.00054 93.0411 552)">flag_truncation=‘manual’</text><text fill="#FFFFFF" font-family="Aptos,Aptos_MSFontService,sans-serif" font-weight="700" font-size="19" transform="matrix(1 0 0 1.00054 110.808 575)">truncation_value=0.2</text><path d="M81 597.659C81 593.606 84.2833 590.321 88.3334 590.321L311.667 590.321C315.717 590.321 319 593.606 319 597.659L319 627.008C319 631.06 315.717 634.345 311.667 634.345L88.3334 634.345C84.2833 634.345 81 631.06 81 627.008Z" stroke="#000000" stroke-width="6" stroke-miterlimit="8" fill="#FF0000" fill-rule="evenodd"/><text fill="#FFFFFF" font-family="Aptos,Aptos_MSFontService,sans-serif" font-weight="700" font-size="19" transform="matrix(1 0 0 1.00054 96.7177 607)">flag_truncation=‘energy’</text><text fill="#FFFFFF" font-family="Aptos,Aptos_MSFontService,sans-serif" font-weight="700" font-size="19" transform="matrix(1 0 0 1.00054 113.644 630)">truncation_value=13</text><path d="M690 541.795C690 537.651 693.358 534.291 697.5 534.291L920.5 534.291C924.642 534.291 928 537.651 928 541.795L928 571.811C928 575.955 924.642 579.315 920.5 579.315L697.5 579.315C693.358 579.315 690 575.955 690 571.811Z" stroke="#000000" stroke-width="6" stroke-miterlimit="8" fill="#00B050" fill-rule="evenodd"/><text fill="#FFFFFF" font-family="Aptos,Aptos_MSFontService,sans-serif" font-weight="700" font-size="19" transform="matrix(1 0 0 1.00054 701.785 552)">flag_truncation=‘manual’</text><text fill="#FFFFFF" font-family="Aptos,Aptos_MSFontService,sans-serif" font-weight="700" font-size="19" transform="matrix(1 0 0 1.00054 722.385 575)">truncation_value=10</text><path d="M690 597.659C690 593.606 693.283 590.321 697.333 590.321L920.667 590.321C924.717 590.321 928 593.606 928 597.659L928 627.008C928 631.06 924.717 634.345 920.667 634.345L697.333 634.345C693.283 634.345 690 631.06 690 627.008Z" stroke="#000000" stroke-width="6" stroke-miterlimit="8" fill="#00B050" fill-rule="evenodd"/><text fill="#FFFFFF" font-family="Aptos,Aptos_MSFontService,sans-serif" font-weight="700" font-size="19" transform="matrix(1 0 0 1.00054 705.462 607)">flag_truncation=‘energy’</text><text fill="#FFFFFF" font-family="Aptos,Aptos_MSFontService,sans-serif" font-weight="700" font-size="19" transform="matrix(1 0 0 1.00054 719.555 630)">truncation_value=0.3</text><text font-family="Aptos,Aptos_MSFontService,sans-serif" font-weight="700" font-size="19" transform="matrix(1 0 0 1.00054 987.263 551)">manual POD truncation</text><text font-family="Aptos,Aptos_MSFontService,sans-serif" font-weight="700" font-size="19" transform="matrix(1 0 0 1.00054 1008.68 574)">requires int values</text><text font-family="Aptos,Aptos_MSFontService,sans-serif" font-weight="700" font-size="19" transform="matrix(1 0 0 1.00054 991.043 618)">energy POD truncation</text><text font-family="Aptos,Aptos_MSFontService,sans-serif" font-weight="700" font-size="19" transform="matrix(1 0 0 1.00054 978.723 641)">requires floats from 0 to 1</text><path d="M624 586.319 662.799 586.319 662.799 590.321 624 590.321ZM660.799 582.317 672.799 588.32 660.799 594.323Z"/><path d="M77 695.212C77 684.805 85.4322 676.368 95.8337 676.368L305.166 676.368C315.568 676.368 324 684.805 324 695.212L324 770.585C324 780.993 315.568 789.43 305.166 789.43L95.8337 789.43C85.4322 789.43 77 780.993 77 770.585Z" stroke="#000000" stroke-width="6" stroke-miterlimit="8" fill="#FF0000" fill-rule="evenodd"/><text fill="#FFFFFF" font-family="Aptos,Aptos_MSFontService,sans-serif" font-weight="700" font-size="19" transform="matrix(1 0 0 1.00054 137.528 694)">flag_pressure=</text><text fill="#FFFFFF" font-family="Aptos,Aptos_MSFontService,sans-serif" font-weight="700" font-size="19" transform="matrix(1 0 0 1.00054 95.7149 717)">‘analytical’ or ‘empirical’</text><text fill="#FFFFFF" font-family="Aptos,Aptos_MSFontService,sans-serif" font-weight="700" font-size="19" transform="matrix(1 0 0 1.00054 114.948 739)">flag_train_res=‘NTR’</text><text fill="#FFFFFF" font-family="Aptos,Aptos_MSFontService,sans-serif" font-weight="700" font-size="19" transform="matrix(1 0 0 1.00054 172.382 761)">and/or</text><text fill="#FFFFFF" font-family="Aptos,Aptos_MSFontService,sans-serif" font-weight="700" font-size="19" transform="matrix(1 0 0 1.00054 116.822 784)">flag_acceleration=0</text><path d="M77 805.605C77 801.092 80.6564 797.434 85.1669 797.434L315.833 797.434C320.344 797.434 324 801.092 324 805.605L324 838.289C324 842.802 320.344 846.461 315.833 846.461L85.1669 846.461C80.6564 846.461 77 842.802 77 838.289Z" stroke="#000000" stroke-width="6" stroke-miterlimit="8" fill="#FF0000" fill-rule="evenodd"/><text fill="#FFFFFF" font-family="Aptos,Aptos_MSFontService,sans-serif" font-weight="700" font-size="19" transform="matrix(1 0 0 1.00054 114.952 817)">flag_train_res=‘NTR’</text><text fill="#FFFFFF" font-family="Aptos,Aptos_MSFontService,sans-serif" font-weight="700" font-size="19" transform="matrix(1 0 0 1.00054 116.825 840)">flag_acceleration=1</text><path d="M690 695.212C690 684.805 698.432 676.368 708.834 676.368L918.166 676.368C928.568 676.368 937 684.805 937 695.212L937 770.585C937 780.993 928.568 789.43 918.166 789.43L708.834 789.43C698.432 789.43 690 780.993 690 770.585Z" stroke="#000000" stroke-width="6" stroke-miterlimit="8" fill="#00B050" fill-rule="evenodd"/><text fill="#FFFFFF" font-family="Aptos,Aptos_MSFontService,sans-serif" font-weight="700" font-size="19" transform="matrix(1 0 0 1.00054 750.625 705)">flag_pressure=</text><text fill="#FFFFFF" font-family="Aptos,Aptos_MSFontService,sans-serif" font-weight="700" font-size="19" transform="matrix(1 0 0 1.00054 708.811 728)">‘analytical’ or ‘empirical’</text><text fill="#FFFFFF" font-family="Aptos,Aptos_MSFontService,sans-serif" font-weight="700" font-size="19" transform="matrix(1 0 0 1.00054 734.798 750)">flag_train_res=‘TR’</text><text fill="#FFFFFF" font-family="Aptos,Aptos_MSFontService,sans-serif" font-weight="700" font-size="19" transform="matrix(1 0 0 1.00054 729.918 772)">flag_acceleration=1</text><path d="M690 805.605C690 801.092 693.656 797.434 698.167 797.434L928.833 797.434C933.344 797.434 937 801.092 937 805.605L937 838.289C937 842.802 933.344 846.461 928.833 846.461L698.167 846.461C693.656 846.461 690 842.802 690 838.289Z" stroke="#000000" stroke-width="6" stroke-miterlimit="8" fill="#00B050" fill-rule="evenodd"/><text fill="#FFFFFF" font-family="Aptos,Aptos_MSFontService,sans-serif" font-weight="700" font-size="19" transform="matrix(1 0 0 1.00054 734.801 817)">flag_train_res=‘TR’</text><text fill="#FFFFFF" font-family="Aptos,Aptos_MSFontService,sans-serif" font-weight="700" font-size="19" transform="matrix(1 0 0 1.00054 729.921 840)">flag_acceleration=1</text><path d="M624 755.411 662.799 755.411 662.799 759.413 624 759.413ZM660.799 751.409 672.799 757.412 660.799 763.415Z"/><text font-family="Aptos,Aptos_MSFontService,sans-serif" font-weight="700" font-size="19" transform="matrix(1 0 0 1.00054 998.587 698)">if pressure coeffs are</text><text font-family="Aptos,Aptos_MSFontService,sans-serif" font-weight="700" font-size="19" transform="matrix(1 0 0 1.00054 963.747 721)">retrieved, dataset must be TR</text><text font-family="Aptos,Aptos_MSFontService,sans-serif" font-weight="700" font-size="19" transform="matrix(1 0 0 1.00054 975.001 743)">and you must compute the</text><text font-family="Aptos,Aptos_MSFontService,sans-serif" font-weight="700" font-size="19" transform="matrix(1 0 0 1.00054 1008.79 765)">acceleration fields</text><text font-family="Aptos,Aptos_MSFontService,sans-serif" font-weight="700" font-size="19" transform="matrix(1 0 0 1.00054 976.281 810)">if acceleration wants to be</text><text font-family="Aptos,Aptos_MSFontService,sans-serif" font-weight="700" font-size="19" transform="matrix(1 0 0 1.00054 958.147 833)">computed, dataset must be TR</text></g></svg>