<svg width="1280" height="1270" xmlns="http://www.w3.org/2000/svg" xmlns:xlink="http://www.w3.org/1999/xlink" overflow="hidden"><g><rect x="0" y="0" width="1280" height="1270" fill="#FFFFFF"/><rect x="8" y="11" width="244" height="53" stroke="#000000" stroke-width="6" stroke-miterlimit="8" fill="#9900FF"/><text fill="#FFFFFF" font-family="Aptos,Aptos_MSFontService,sans-serif" font-weight="700" font-size="21" transform="translate(25.3438 45)">I. DATA PREPARATION</text><rect x="252" y="11" width="127" height="53" stroke="#000000" stroke-width="6" stroke-miterlimit="8" fill="#800080"/><text fill="#FFFFFF" font-family="Aptos,Aptos_MSFontService,sans-serif" font-weight="700" font-size="21" transform="translate(281.719 45)">II. POD</text><rect x="379" y="11" width="364" height="53" stroke="#000000" stroke-width="6" stroke-miterlimit="8" fill="#990033"/><text fill="#FFFFFF" font-family="Aptos,Aptos_MSFontService,sans-serif" font-weight="700" font-size="21" transform="translate(390.703 45)">III. GALERKIN PROJECTION COEFFS</text><rect x="743" y="11" width="195" height="53" stroke="#000000" stroke-width="6" stroke-miterlimit="8" fill="#996600"/><text fill="#FFFFFF" font-family="Aptos,Aptos_MSFontService,sans-serif" font-weight="700" font-size="21" transform="translate(759.411 45)">IV. INTEGRATION</text><rect x="938" y="11" width="139" height="53" stroke="#000000" stroke-width="6" stroke-miterlimit="8" fill="#339966"/><text fill="#FFFFFF" font-family="Aptos,Aptos_MSFontService,sans-serif" font-weight="700" font-size="21" transform="translate(956.213 45)">V. ERRORS</text><rect x="1077" y="11" width="195" height="53" stroke="#000000" stroke-width="6" stroke-miterlimit="8" fill="#3366CC"/><text fill="#FFFFFF" font-family="Aptos,Aptos_MSFontService,sans-serif" font-weight="700" font-size="21" transform="translate(1088.99 45)">VI. SAVE RESULTS</text><path d="M704 110.5 786.5 84 869 110.5 786.5 137Z" stroke="#000000" stroke-width="6" stroke-miterlimit="8" fill="#7F7F7F" fill-rule="evenodd"/><path d="M441 94.3335C441 90.2833 444.283 87 448.333 87L555.667 87C559.717 87 563 90.2833 563 94.3335L563 123.667C563 127.717 559.717 131 555.667 131L448.333 131C444.283 131 441 127.717 441 123.667Z" stroke="#000000" stroke-width="6" stroke-miterlimit="8" fill="#7F7F7F" fill-rule="evenodd"/><path d="M213 106 219 106 219 112 213 112ZM225 106 231 106 231 112 225 112ZM237 106 243 106 243 112 237 112ZM249 106 255 106 255 112 249 112ZM261 106 267 106 267 112 261 112ZM273 106 279 106 279 112 273 112ZM285 106 288.127 106 288.127 112 285 112ZM285.127 100 303.127 109 285.127 118Z" fill="#7F7F7F"/><text font-family="Aptos,Aptos_MSFontService,sans-serif" font-weight="700" font-size="21" transform="translate(325.603 117)">input</text><text font-family="Aptos,Aptos_MSFontService,sans-serif" font-weight="700" font-size="21" transform="translate(587.375 117)">action</text><text font-family="Aptos,Aptos_MSFontService,sans-serif" font-weight="700" font-size="21" transform="translate(896.844 117)">condition</text><path d="M61 250 61.0001 268.228" stroke="#000000" stroke-width="4" stroke-miterlimit="8" fill="none" fill-rule="evenodd"/><path d="M60.9999 234 87.9999 242 60.9999 250Z" stroke="#000000" stroke-width="4" stroke-miterlimit="8" fill="#47D45A" fill-rule="evenodd"/><text fill="#47D45A" font-family="Aptos,Aptos_MSFontService,sans-serif" font-weight="700" font-size="21" transform="translate(51.1531 223)">START</text><path d="M151 229C151 225.134 154.134 222 158 222L266 222C269.866 222 273 225.134 273 229L273 257C273 260.866 269.866 264 266 264L158 264C154.134 264 151 260.866 151 257Z" stroke="#000000" stroke-width="6" stroke-miterlimit="8" fill="#9900FF" fill-rule="evenodd"/><text fill="#FFFFFF" font-family="Aptos,Aptos_MSFontService,sans-serif" font-weight="700" font-size="19" transform="translate(175.18 249)">read grid</text><path d="M323 242 417 210 511 242 417 274Z" stroke="#000000" stroke-width="6" stroke-miterlimit="8" fill="#9900FF" fill-rule="evenodd"/><text fill="#FFFFFF" font-family="Aptos,Aptos_MSFontService,sans-serif" font-weight="700" font-size="19" transform="translate(397.812 225)">load</text><text fill="#FFFFFF" font-family="Aptos,Aptos_MSFontService,sans-serif" font-weight="700" font-size="19" transform="translate(380.479 248)">Galerkin</text><text fill="#FFFFFF" font-family="Aptos,Aptos_MSFontService,sans-serif" font-weight="700" font-size="19" transform="translate(385.239 270)">coeffs?</text><path d="M562 242 656 210 750 242 656 274Z" stroke="#000000" stroke-width="6" stroke-miterlimit="8" fill="#9900FF" fill-rule="evenodd"/><text fill="#FFFFFF" font-family="Aptos,Aptos_MSFontService,sans-serif" font-weight="700" font-size="19" transform="translate(637.707 236)">load</text><text fill="#FFFFFF" font-family="Aptos,Aptos_MSFontService,sans-serif" font-weight="700" font-size="19" transform="translate(632.461 259)">POD?</text><path d="M801 241 895 209 989 241 895 273Z" stroke="#000000" stroke-width="6" stroke-miterlimit="8" fill="#9900FF" fill-rule="evenodd"/><text fill="#FFFFFF" font-family="Aptos,Aptos_MSFontService,sans-serif" font-weight="700" font-size="19" transform="translate(876.394 236)">load</text><text fill="#FFFFFF" font-family="Aptos,Aptos_MSFontService,sans-serif" font-weight="700" font-size="19" transform="translate(867.607 259)">PODr?</text><path d="M1040 222.667C1040 217.88 1043.88 214 1048.67 214L1197.33 214C1202.12 214 1206 217.88 1206 222.667L1206 257.333C1206 262.12 1202.12 266 1197.33 266L1048.67 266C1043.88 266 1040 262.12 1040 257.333Z" stroke="#000000" stroke-width="6" stroke-miterlimit="8" fill="#9900FF" fill-rule="evenodd"/><text fill="#FFFFFF" font-family="Aptos,Aptos_MSFontService,sans-serif" font-weight="700" font-size="19" transform="translate(1066.38 235)">read &amp; create</text><text fill="#FFFFFF" font-family="Aptos,Aptos_MSFontService,sans-serif" font-weight="700" font-size="19" transform="translate(1056.01 258)">NTR training set</text><path d="M834 343C834 339.134 837.134 336 841 336L949 336C952.866 336 956 339.134 956 343L956 371C956 374.866 952.866 378 949 378L841 378C837.134 378 834 374.866 834 371Z" stroke="#000000" stroke-width="6" stroke-miterlimit="8" fill="#9900FF" fill-rule="evenodd"/><text fill="#FFFFFF" font-family="Aptos,Aptos_MSFontService,sans-serif" font-weight="700" font-size="19" transform="translate(853.141 363)">load stats</text><path d="M1061 343C1061 339.134 1064.13 336 1068 336L1177 336C1180.87 336 1184 339.134 1184 343L1184 371C1184 374.866 1180.87 378 1177 378L1068 378C1064.13 378 1061 374.866 1061 371Z" stroke="#000000" stroke-width="6" stroke-miterlimit="8" fill="#9900FF" fill-rule="evenodd"/><text fill="#FFFFFF" font-family="Aptos,Aptos_MSFontService,sans-serif" font-weight="700" font-size="19" transform="translate(1103.67 352)">read</text><text fill="#FFFFFF" font-family="Aptos,Aptos_MSFontService,sans-serif" font-weight="700" font-size="19" transform="translate(1078.35 375)">testing set</text><path d="M1029 473 1123 441 1217 473 1123 505Z" stroke="#000000" stroke-width="6" stroke-miterlimit="8" fill="#9900FF" fill-rule="evenodd"/><text fill="#FFFFFF" font-family="Aptos,Aptos_MSFontService,sans-serif" font-weight="700" font-size="19" transform="translate(1115.48 456)">is</text><text fill="#FFFFFF" font-family="Aptos,Aptos_MSFontService,sans-serif" font-weight="700" font-size="19" transform="translate(1093.6 479)">testing</text><text fill="#FFFFFF" font-family="Aptos,Aptos_MSFontService,sans-serif" font-weight="700" font-size="19" transform="translate(1107.32 501)">TR?</text><path d="M834 457C834 453.134 837.134 450 841 450L950 450C953.866 450 957 453.134 957 457L957 485C957 488.866 953.866 492 950 492L841 492C837.134 492 834 488.866 834 485Z" stroke="#000000" stroke-width="6" stroke-miterlimit="8" fill="#9900FF" fill-rule="evenodd"/><text fill="#FFFFFF" font-family="Aptos,Aptos_MSFontService,sans-serif" font-weight="700" font-size="19" transform="translate(855.943 466)">create TR</text><text fill="#FFFFFF" font-family="Aptos,Aptos_MSFontService,sans-serif" font-weight="700" font-size="19" transform="translate(851.19 489)">testing set</text><path d="M1061 576C1061 572.134 1064.13 569 1068 569L1177 569C1180.87 569 1184 572.134 1184 576L1184 604C1184 607.866 1180.87 611 1177 611L1068 611C1064.13 611 1061 607.866 1061 604Z" stroke="#000000" stroke-width="6" stroke-miterlimit="8" fill="#9900FF" fill-rule="evenodd"/><text fill="#FFFFFF" font-family="Aptos,Aptos_MSFontService,sans-serif" font-weight="700" font-size="19" transform="translate(1076.36 585)">create NTR</text><text fill="#FFFFFF" font-family="Aptos,Aptos_MSFontService,sans-serif" font-weight="700" font-size="19" transform="translate(1078.35 608)">testing set</text><path d="M323 471 417 439 511 471 417 503Z" stroke="#000000" stroke-width="6" stroke-miterlimit="8" fill="#800080" fill-rule="evenodd"/><text fill="#FFFFFF" font-family="Aptos,Aptos_MSFontService,sans-serif" font-weight="700" font-size="19" transform="translate(397.812 465)">load</text><text fill="#FFFFFF" font-family="Aptos,Aptos_MSFontService,sans-serif" font-weight="700" font-size="19" transform="translate(389.025 488)">PODr?</text><path d="M562 471 656 439 750 471 656 503Z" stroke="#000000" stroke-width="6" stroke-miterlimit="8" fill="#800080" fill-rule="evenodd"/><text fill="#FFFFFF" font-family="Aptos,Aptos_MSFontService,sans-serif" font-weight="700" font-size="19" transform="translate(637.707 465)">load</text><text fill="#FFFFFF" font-family="Aptos,Aptos_MSFontService,sans-serif" font-weight="700" font-size="19" transform="translate(632.461 488)">POD?</text><path d="M156 457C156 453.134 159.134 450 163 450L272 450C275.866 450 279 453.134 279 457L279 485C279 488.866 275.866 492 272 492L163 492C159.134 492 156 488.866 156 485Z" stroke="#000000" stroke-width="6" stroke-miterlimit="8" fill="#800080" fill-rule="evenodd"/><text fill="#FFFFFF" font-family="Aptos,Aptos_MSFontService,sans-serif" font-weight="700" font-size="19" transform="translate(172.49 465)">apply POD</text><text fill="#FFFFFF" font-family="Aptos,Aptos_MSFontService,sans-serif" font-weight="700" font-size="19" transform="translate(167.643 488)">to NTR train</text><path d="M735 573.167C735 569.209 738.209 566 742.167 566L850.833 566C854.791 566 858 569.209 858 573.167L858 601.833C858 605.791 854.791 609 850.833 609L742.167 609C738.209 609 735 605.791 735 601.833Z" stroke="#000000" stroke-width="6" stroke-miterlimit="8" fill="#800080" fill-rule="evenodd"/><text fill="#FFFFFF" font-family="Aptos,Aptos_MSFontService,sans-serif" font-weight="700" font-size="19" transform="translate(756.505 593)">load POD</text><path d="M354 574C354 570.134 357.134 567 361 567L470 567C473.866 567 477 570.134 477 574L477 602C477 605.866 473.866 609 470 609L361 609C357.134 609 354 605.866 354 602Z" stroke="#000000" stroke-width="6" stroke-miterlimit="8" fill="#800080" fill-rule="evenodd"/><text fill="#FFFFFF" font-family="Aptos,Aptos_MSFontService,sans-serif" font-weight="700" font-size="19" transform="translate(371.805 593)">load PODr</text><path d="M156 708C156 704.134 159.134 701 163 701L272 701C275.866 701 279 704.134 279 708L279 736C279 739.866 275.866 743 272 743L163 743C159.134 743 156 739.866 156 736Z" stroke="#000000" stroke-width="6" stroke-miterlimit="8" fill="#800080" fill-rule="evenodd"/><text fill="#FFFFFF" font-family="Aptos,Aptos_MSFontService,sans-serif" font-weight="700" font-size="19" transform="translate(180.92 717)">truncate</text><text fill="#FFFFFF" font-family="Aptos,Aptos_MSFontService,sans-serif" font-weight="700" font-size="19" transform="translate(197.9 740)">POD</text><path d="M323 722 417 690 511 722 417 754Z" stroke="#000000" stroke-width="6" stroke-miterlimit="8" fill="#800080" fill-rule="evenodd"/><text fill="#FFFFFF" font-family="Aptos,Aptos_MSFontService,sans-serif" font-weight="700" font-size="19" transform="translate(410.036 706)">is</text><text fill="#FFFFFF" font-family="Aptos,Aptos_MSFontService,sans-serif" font-weight="700" font-size="19" transform="translate(388.156 729)">testing</text><text fill="#FFFFFF" font-family="Aptos,Aptos_MSFontService,sans-serif" font-weight="700" font-size="19" transform="translate(401.87 751)">TR?</text><path d="M346 824.5C346 820.91 348.91 818 352.5 818L482.5 818C486.09 818 489 820.91 489 824.5L489 850.5C489 854.09 486.09 857 482.5 857L352.5 857C348.91 857 346 854.09 346 850.5Z" stroke="#000000" stroke-width="6" stroke-miterlimit="8" fill="#800080" fill-rule="evenodd"/><text fill="#FFFFFF" font-family="Aptos,Aptos_MSFontService,sans-serif" font-weight="700" font-size="19" transform="translate(362.725 832)">project PODr</text><text fill="#FFFFFF" font-family="Aptos,Aptos_MSFontService,sans-serif" font-weight="700" font-size="19" transform="translate(375.658 855)">on TR test</text><path d="M561 709.5C561 705.91 563.91 703 567.5 703L696.5 703C700.09 703 703 705.91 703 709.5L703 735.5C703 739.09 700.09 742 696.5 742L567.5 742C563.91 742 561 739.09 561 735.5Z" stroke="#000000" stroke-width="6" stroke-miterlimit="8" fill="#800080" fill-rule="evenodd"/><text fill="#FFFFFF" font-family="Aptos,Aptos_MSFontService,sans-serif" font-weight="700" font-size="19" transform="translate(576.935 717)">project PODr</text><text fill="#FFFFFF" font-family="Aptos,Aptos_MSFontService,sans-serif" font-weight="700" font-size="19" transform="translate(583.122 740)">on NTR test</text><path d="M0.0326938-1.99973 39.249-1.35858 39.1837 2.64088-0.0326938 1.99973ZM37.3147-5.39074 49.215 0.804619 37.1185 6.60766Z" transform="matrix(1 0 0 -1 273 242.805)"/><path d="M0.00842328-1.99998 41.9576-1.82331 41.9408 2.17666-0.00842328 1.99998ZM39.9745-5.83169 51.9491 0.218793 39.9239 6.1682Z" transform="matrix(1 0 0 -1 511 242.219)"/><path d="M0.0249917-1.99984 40.7598-1.49079 40.7099 2.5089-0.0249917 1.99984ZM38.81-5.51547 50.7341 0.634016 38.66 6.4836Z" transform="matrix(1 0 0 -1 750 241.634)"/><path d="M0.0467174-1.99945 40.7836-1.04763 40.6902 2.95127-0.0467174 1.99945ZM38.8776-5.09326 50.7342 1.18541 38.5973 6.90347Z" transform="matrix(1 0 0 -1 989 241.185)"/><path d="M2-3.00536e-06 2.00009 59.8663-1.99991 59.8663-2 3.00536e-06ZM6.00009 57.8663 0.000104987 69.8663-5.99991 57.8664Z" transform="matrix(-1 0 0 1 1123 266)"/><path d="M2-1.00217e-05 2.00026 52.8556-1.99973 52.8556-2 1.00217e-05ZM6.00025 50.8556 0.000314961 62.8556-5.99975 50.8557Z" transform="matrix(-1 0 0 1 895 273)"/><path d="M956 355 1051.24 355 1051.24 359 956 359ZM1049.24 351 1061.24 357 1049.24 363Z"/><path d="M2-6.71274e-06 2.00018 52.5598-1.99982 52.5598-2 6.71274e-06ZM6.00017 50.5598 0.000209974 62.5598-5.99983 50.5598Z" transform="matrix(-1 0 0 1 1123 378)"/><path d="M1028.69 474.339 966.961 473.186 967.036 469.187 1028.76 470.34ZM968.886 477.223 957 471 969.11 465.225Z"/><path d="M1125 505 1125 559.603 1121 559.603 1121 505ZM1129 557.603 1123 569.603 1117 557.603Z"/><path d="M1061.7 591.867 894 591.867 894 502 898 502 898 589.867 896 587.867 1061.7 587.867ZM890 504 896 492 902 504Z"/><path d="M0-2 85.13-2 85.13 407.621 81.13 407.621 81.13 0 83.13 2 0 2ZM89.13 405.62 83.13 417.62 77.13 405.62Z" transform="matrix(1.83697e-16 1 1 -1.83697e-16 417 274)"/><path d="M0-2 85.3488-2 85.3488 167.721 81.3488 167.721 81.3488 0 83.3488 2 0 2ZM89.3488 165.721 83.3488 177.721 77.3488 165.721Z" transform="matrix(1.83697e-16 1 1 -1.83697e-16 656 274)"/><path d="M833.735 473.486 759.988 473.058 760.011 469.058 833.758 469.486ZM761.965 477.069 750 471 762.035 465.07Z"/><path d="M4.76673e-06-2 34.0499-1.99992 34.0499 2.00008-4.76673e-06 2ZM32.0499-5.99992 44.0499 0.000104987 32.0499 6.00008Z" transform="matrix(-1 0 0 1 555.05 471)"/><path d="M1.90669e-05-2 34.0499-1.99968 34.0498 2.00032-1.90669e-05 2ZM32.0499-5.99969 44.0499 0.000419947 32.0498 6.00031Z" transform="matrix(-1 0 0 1 323.05 471)"/><path d="M1.99944-0.0472664 3.27041 53.7165-0.728477 53.811-1.99944 0.0472664ZM7.22202 51.6225 1.5073 63.7609-4.77463 51.9061Z" transform="matrix(-1 0 0 1 416.507 503)"/><path d="M219 492 219 691.073 215 691.073 215 492ZM223 689.073 217 701.073 211 689.073Z"/><path d="M511 588 604.5 556 698 588 604.5 620Z" stroke="#000000" stroke-width="6" stroke-miterlimit="8" fill="#800080" fill-rule="evenodd"/><text fill="#FFFFFF" font-family="Aptos,Aptos_MSFontService,sans-serif" font-weight="700" font-size="19" transform="translate(585.762 582)">load</text><text fill="#FFFFFF" font-family="Aptos,Aptos_MSFontService,sans-serif" font-weight="700" font-size="19" transform="translate(576.975 605)">PODr?</text><path d="M0-2 33.8743-2 33.8743 139.877 31.8743 137.877 53.7485 137.877 53.7485 141.877 29.8743 141.877 29.8743 0 31.8743 2 0 2ZM51.7485 133.877 63.7485 139.877 51.7485 145.877Z" transform="matrix(1.83697e-16 1 1 -1.83697e-16 656 503)"/><path d="M5.77102e-06-2 26.3842-1.99992 26.3841 2.00008-5.77102e-06 2ZM24.3842-5.99993 36.3841 0.000104987 24.3841 6.00007Z" transform="matrix(-1 0 0 1 734.384 588)"/><path d="M0.000734595-2 24.0152-1.99118 24.0138 2.00882-0.000734595 2ZM22.0167-5.99191 34.0145 0.0124934 22.0123 6.00809Z" transform="matrix(-1 0 0 1 511.014 588)"/><path d="M606.442 620 606.442 654.567 217 654.567 219 652.567 219 691.475 215 691.475 215 650.567 604.442 650.567 602.442 652.567 602.442 620ZM223 689.475 217 701.475 211 689.475Z"/><path d="M279 720 313.854 720 313.854 724 279 724ZM311.854 716 323.854 722 311.854 728Z"/><path d="M511 720 550.185 720 550.185 724 511 724ZM548.185 716 560.185 722 548.185 728Z"/><path d="M419 753.997 419.075 808.248 415.075 808.254 415 754.003ZM423.072 806.243 417.089 818.251 411.072 806.259Z"/><path d="M0-2 145.072-2 145.072 86.1757 141.072 86.1757 141.072 0 143.072 2 0 2ZM149.072 84.1756 143.072 96.1756 137.072 84.1756Z" transform="matrix(1 0 0 -1 489 838.176)"/><path d="M754 724 848 692 942 724 848 756Z" stroke="#000000" stroke-width="6" stroke-miterlimit="8" fill="#990033" fill-rule="evenodd"/><text fill="#FFFFFF" font-family="Aptos,Aptos_MSFontService,sans-serif" font-weight="700" font-size="19" transform="translate(828.878 707)">load</text><text fill="#FFFFFF" font-family="Aptos,Aptos_MSFontService,sans-serif" font-weight="700" font-size="19" transform="translate(811.545 730)">Galerkin</text><text fill="#FFFFFF" font-family="Aptos,Aptos_MSFontService,sans-serif" font-weight="700" font-size="19" transform="translate(816.305 752)">coeffs?</text><path d="M779 824.5C779 820.91 781.91 818 785.5 818L909.5 818C913.09 818 916 820.91 916 824.5L916 850.5C916 854.09 913.09 857 909.5 857L785.5 857C781.91 857 779 854.09 779 850.5Z" stroke="#000000" stroke-width="6" stroke-miterlimit="8" fill="#990033" fill-rule="evenodd"/><text fill="#FFFFFF" font-family="Aptos,Aptos_MSFontService,sans-serif" font-weight="700" font-size="19" transform="translate(790.878 832)">load Galerkin</text><text fill="#FFFFFF" font-family="Aptos,Aptos_MSFontService,sans-serif" font-weight="700" font-size="19" transform="translate(824.118 855)">coefs</text><path d="M997 710C997 706.134 1000.13 703 1004 703L1138 703C1141.87 703 1145 706.134 1145 710L1145 738C1145 741.866 1141.87 745 1138 745L1004 745C1000.13 745 997 741.866 997 738Z" stroke="#000000" stroke-width="6" stroke-miterlimit="8" fill="#990033" fill-rule="evenodd"/><text fill="#FFFFFF" font-family="Aptos,Aptos_MSFontService,sans-serif" font-weight="700" font-size="19" transform="translate(1044.39 719)">derive</text><text fill="#FFFFFF" font-family="Aptos,Aptos_MSFontService,sans-serif" font-weight="700" font-size="19" transform="translate(1009.12 742)">Galerkin coefs</text><path d="M703.072 720.001 743.928 721.472 743.784 725.469 702.928 723.999ZM742.073 717.403 753.849 723.831 741.641 729.395Z"/><path d="M942.011 722 987.153 722.252 987.131 726.252 941.989 726ZM985.176 718.241 997.142 724.308 985.109 730.241Z"/><path d="M2-3.36388e-06 2.00009 52.42-1.99991 52.42-2 3.36388e-06ZM6.00008 50.42 0.000104987 62.4201-5.99992 50.4201Z" transform="matrix(-1 0 0 1 848 756)"/><path d="M982 819.334C982 814.179 986.179 810 991.334 810L1149.67 810C1154.82 810 1159 814.179 1159 819.334L1159 856.666C1159 861.821 1154.82 866 1149.67 866L991.334 866C986.179 866 982 861.821 982 856.666Z" stroke="#000000" stroke-width="6" stroke-miterlimit="8" fill="#996600" fill-rule="evenodd"/><text fill="#FFFFFF" font-family="Aptos,Aptos_MSFontService,sans-serif" font-weight="700" font-size="19" transform="translate(995.019 833)">integrate NTR test</text><text fill="#FFFFFF" font-family="Aptos,Aptos_MSFontService,sans-serif" font-weight="700" font-size="19" transform="translate(1005.41 856)">with GP system</text><path d="M1007 946.667C1007 942.985 1009.98 940 1013.67 940L1126.33 940C1130.02 940 1133 942.985 1133 946.667L1133 973.333C1133 977.015 1130.02 980 1126.33 980L1013.67 980C1009.98 980 1007 977.015 1007 973.333Z" stroke="#000000" stroke-width="6" stroke-miterlimit="8" fill="#996600" fill-rule="evenodd"/><text fill="#FFFFFF" font-family="Aptos,Aptos_MSFontService,sans-serif" font-weight="700" font-size="19" transform="translate(1023.09 954)">interpolate</text><text fill="#FFFFFF" font-family="Aptos,Aptos_MSFontService,sans-serif" font-weight="700" font-size="19" transform="translate(1034.14 977)">NTR test</text><path d="M2-3.24311e-06 2.00009 54.7446-1.99991 54.7446-2 3.24311e-06ZM6.00009 52.7446 0.000104987 64.7446-5.99991 52.7446Z" transform="matrix(-1 0 0 1 1071 745)"/><path d="M916.005 836 971.807 836.133 971.798 840.133 915.995 840ZM969.817 832.129 981.802 838.157 969.788 844.129Z"/><path d="M1.99993-0.0166543 2.53283 63.9763-1.46703 64.0097-1.99993 0.0166543ZM6.51603 61.9431 0.616168 73.9926-5.48355 62.043Z" transform="matrix(-1 0 0 1 1070.62 866)"/><path d="M757 960 851 928 945 960 851 992Z" stroke="#000000" stroke-width="6" stroke-miterlimit="8" fill="#339966" fill-rule="evenodd"/><text fill="#FFFFFF" font-family="Aptos,Aptos_MSFontService,sans-serif" font-weight="700" font-size="19" transform="translate(843.472 944)">is</text><text fill="#FFFFFF" font-family="Aptos,Aptos_MSFontService,sans-serif" font-weight="700" font-size="19" transform="translate(821.592 967)">testing</text><text fill="#FFFFFF" font-family="Aptos,Aptos_MSFontService,sans-serif" font-weight="700" font-size="19" transform="translate(835.306 989)">TR?</text><path d="M0.0156831-1.99994 52.726-1.5866 52.6947 2.41328-0.0156831 1.99994ZM50.7574-5.60216 62.71 0.491759 50.6633 6.39748Z" transform="matrix(-1 0 0 1 1007.71 960)"/><path d="M580 947.333C580 943.836 582.836 941 586.333 941L715.667 941C719.164 941 722 943.836 722 947.333L722 972.667C722 976.164 719.164 979 715.667 979L586.333 979C582.836 979 580 976.164 580 972.667Z" stroke="#000000" stroke-width="6" stroke-miterlimit="8" fill="#339966" fill-rule="evenodd"/><text fill="#FFFFFF" font-family="Aptos,Aptos_MSFontService,sans-serif" font-weight="700" font-size="19" transform="translate(593.486 954)">get mode and</text><text fill="#FFFFFF" font-family="Aptos,Aptos_MSFontService,sans-serif" font-weight="700" font-size="19" transform="translate(604.479 977)">field errors</text><path d="M346 1068.33C346 1064.84 348.836 1062 352.333 1062L482.667 1062C486.164 1062 489 1064.84 489 1068.33L489 1093.67C489 1097.16 486.164 1100 482.667 1100L352.333 1100C348.836 1100 346 1097.16 346 1093.67Z" stroke="#000000" stroke-width="6" stroke-miterlimit="8" fill="#339966" fill-rule="evenodd"/><text fill="#FFFFFF" font-family="Aptos,Aptos_MSFontService,sans-serif" font-weight="700" font-size="19" transform="translate(371.746 1075)">get system</text><text fill="#FFFFFF" font-family="Aptos,Aptos_MSFontService,sans-serif" font-weight="700" font-size="19" transform="translate(392.133 1098)">errors</text><path d="M570 1068.33C570 1064.84 572.836 1062 576.333 1062L736.667 1062C740.164 1062 743 1064.84 743 1068.33L743 1093.67C743 1097.16 740.164 1100 736.667 1100L576.333 1100C572.836 1100 570 1097.16 570 1093.67Z" stroke="#000000" stroke-width="6" stroke-miterlimit="8" fill="#339966" fill-rule="evenodd"/><text fill="#FFFFFF" font-family="Aptos,Aptos_MSFontService,sans-serif" font-weight="700" font-size="19" transform="translate(588.711 1075)">get active terms</text><text fill="#FFFFFF" font-family="Aptos,Aptos_MSFontService,sans-serif" font-weight="700" font-size="19" transform="translate(605.211 1098)">in dynamics</text><path d="M290 961.5 417.5 923 545 961.5 417.5 1000Z" stroke="#000000" stroke-width="6" stroke-miterlimit="8" fill="#339966" fill-rule="evenodd"/><text fill="#FFFFFF" font-family="Aptos,Aptos_MSFontService,sans-serif" font-weight="700" font-size="19" transform="translate(365.293 944)">are coeffs in</text><text fill="#FFFFFF" font-family="Aptos,Aptos_MSFontService,sans-serif" font-weight="700" font-size="19" transform="translate(372.093 967)">matrix and</text><text fill="#FFFFFF" font-family="Aptos,Aptos_MSFontService,sans-serif" font-weight="700" font-size="19" transform="translate(372.613 989)">sparsifed?</text><path d="M285 1191.5 418 1160 551 1191.5 418 1223Z" stroke="#000000" stroke-width="6" stroke-miterlimit="8" fill="#339966" fill-rule="evenodd"/><text fill="#FFFFFF" font-family="Aptos,Aptos_MSFontService,sans-serif" font-weight="700" font-size="19" transform="translate(404.277 1175)">are</text><text fill="#FFFFFF" font-family="Aptos,Aptos_MSFontService,sans-serif" font-weight="700" font-size="19" transform="translate(364.677 1198)">acceleration</text><text fill="#FFFFFF" font-family="Aptos,Aptos_MSFontService,sans-serif" font-weight="700" font-size="19" transform="translate(364.391 1220)">fields avail.?</text><path d="M815 1067.33C815 1063.84 817.836 1061 821.333 1061L980.667 1061C984.164 1061 987 1063.84 987 1067.33L987 1092.67C987 1096.16 984.164 1099 980.667 1099L821.333 1099C817.836 1099 815 1096.16 815 1092.67Z" stroke="#000000" stroke-width="6" stroke-miterlimit="8" fill="#3366CC" fill-rule="evenodd"/><text fill="#FFFFFF" font-family="Aptos,Aptos_MSFontService,sans-serif" font-weight="700" font-size="19" transform="translate(827.677 1075)">save results from</text><text fill="#FFFFFF" font-family="Aptos,Aptos_MSFontService,sans-serif" font-weight="700" font-size="19" transform="translate(852.964 1098)">flag_savers</text><path d="M756.788 962.492 731.971 962.141 732.027 958.141 756.844 958.492ZM733.914 966.169 722 960 734.084 954.17Z"/><path d="M0.0702859-1.99876 24.6047-1.13602 24.4641 2.86151-0.0702859 1.99876ZM22.7465-5.20384 34.5282 1.21417 22.3247 6.78875Z" transform="matrix(-1 0 0 1 579.528 960)"/><path d="M419 999.995 419.131 1051.97 415.131 1051.98 415 1000.01ZM423.126 1049.96 417.156 1061.98 411.126 1049.99Z"/><path d="M420 1099.99 420.335 1150.1 416.335 1150.13 416 1100.01ZM424.321 1148.08 418.401 1160.12 412.321 1148.16Z"/><path d="M0-2 30.9399-2 30.9399 232.511 14.9399 232.511 14.9399 228.511 28.9399 228.511 26.9399 230.511 26.9399 0 28.9399 2 0 2ZM16.9399 236.511 4.93995 230.511 16.9399 224.511Z" transform="matrix(-1 1.22465e-16 1.22465e-16 1 289.94 961)"/><path d="M0-2 107.2-2 107.2 82.0402 103.2 82.0402 103.2 0 105.2 2 0 2ZM111.2 80.0402 105.2 92.0402 99.1996 80.0402Z" transform="matrix(1 0 0 -1 551 1192.04)"/><path d="M420 1223.4 420 1247.4 418 1245.4 900.993 1245.4 898.993 1247.4 898.993 1109 902.993 1109 902.993 1249.4 416 1249.4 416 1223.4ZM894.993 1111 900.993 1099 906.993 1111Z"/><path d="M0.0121105-1.99996 62.1549-1.62367 62.1306 2.37626-0.0121105 1.99996ZM60.1791-5.6357 72.1426 0.43685 60.1065 6.36408Z" transform="matrix(1 0 0 -1 743 1080.44)"/><path d="M1059 1095 1059 1113.23" stroke="#000000" stroke-width="4" stroke-miterlimit="8" fill="none" fill-rule="evenodd"/><path d="M1059 1079 1085 1087 1059 1095Z" stroke="#000000" stroke-width="4" stroke-miterlimit="8" fill="#FF0000" fill-rule="evenodd"/><text fill="#FF0000" font-family="Aptos,Aptos_MSFontService,sans-serif" font-weight="700" font-size="21" transform="translate(1044.2 1069)">FINISH</text><path d="M2-5.62297e-06 2.00001 3.99999-1.99999 4.00001-2 5.62297e-06ZM2.00002 7.99999 2.00003 12-1.99997 12-1.99998 8.00001ZM2.00004 16 2.00006 20-1.99994 20-1.99996 16ZM2.00007 24 2.00008 27.3421-1.99992 27.3422-1.99993 24ZM6.00007 25.3421 0.000104987 37.3422-5.99993 25.3422Z" fill="#FF00FF" transform="matrix(1 0 0 -1 212 301.342)"/><text fill="#FF00FF" font-family="Aptos,Aptos_MSFontService,sans-serif" font-weight="700" font-size="19" transform="translate(170.477 320)">path_grid</text><text fill="#FF00FF" font-family="Aptos,Aptos_MSFontService,sans-serif" font-weight="700" font-size="19" transform="translate(604.217 161)">flag_loaders</text><path d="M658 171 658 175 654 175 654 171ZM658 179 658 183 654 183 654 179ZM658 187 658 191 654 191 654 187ZM658 195 658 199 654 199 654 195ZM662 197.562 656 209.562 650 197.562Z" fill="#FF00FF"/><text font-family="Aptos,Aptos_MSFontService,sans-serif" font-weight="400" font-size="19" transform="translate(427.957 321)">YES</text><text font-family="Aptos,Aptos_MSFontService,sans-serif" font-weight="400" font-size="19" transform="translate(669.363 323)">YES</text><text font-family="Aptos,Aptos_MSFontService,sans-serif" font-weight="400" font-size="19" transform="translate(901.11 309)">YES</text><text font-family="Aptos,Aptos_MSFontService,sans-serif" font-weight="400" font-size="19" transform="translate(521.12 267)">NO</text><text font-family="Aptos,Aptos_MSFontService,sans-serif" font-weight="400" font-size="19" transform="translate(760.223 269)">NO</text><text font-family="Aptos,Aptos_MSFontService,sans-serif" font-weight="400" font-size="19" transform="translate(993.034 269)">NO</text><text fill="#FF00FF" font-family="Aptos,Aptos_MSFontService,sans-serif" font-weight="700" font-size="19" transform="translate(741.531 304)">flag_loaders</text><text fill="#FF00FF" font-family="Aptos,Aptos_MSFontService,sans-serif" font-weight="700" font-size="19" transform="translate(746.478 327)">dir_ results</text><path d="M0-2 4-2 4 2 0 2ZM8-2 12-2 12 2 8 2ZM16-2 21.4993-2 21.4993 0.500682 17.4993 0.500682 17.4993 0 19.4993 2 16 2ZM21.4993 4.50068 21.4993 8.50068 17.4993 8.50068 17.4993 4.50068ZM21.4993 12.5007 21.4993 16.5007 17.4993 16.5007 17.4993 12.5007ZM21.4993 20.5007 21.4993 24.5007 17.4993 24.5007 17.4993 20.5007ZM21.4993 28.5007 21.4993 30.4075 17.4993 30.4075 17.4993 28.5007ZM25.4993 28.4075 19.4993 40.4075 13.4993 28.4075Z" fill="#FF00FF" transform="matrix(1.83697e-16 1 1 -1.83697e-16 794 338)"/><text fill="#FF00FF" font-family="Aptos,Aptos_MSFontService,sans-serif" font-weight="700" font-size="19" transform="translate(1154.38 307)">path_train</text><text fill="#FF00FF" font-family="Aptos,Aptos_MSFontService,sans-serif" font-weight="700" font-size="19" transform="translate(986.529 320)">path_test</text><path d="M0-2 4-2 4 2 0 2ZM8-2 12-2 12 2 8 2ZM16-2 20-2 20 2 16 2ZM24-2 28.0502-2 28.0502 1.94982 24.0502 1.94982 24.0502 0 26.0502 2 24 2ZM28.0502 5.94982 28.0502 9.94982 24.0502 9.94982 24.0502 5.94982ZM28.0502 13.9498 28.0502 17.9498 24.0502 17.9498 24.0502 13.9498ZM28.0502 21.9498 28.0502 24.5844 24.0502 24.5844 24.0502 21.9498ZM32.0502 22.5844 26.0502 34.5844 20.0502 22.5844Z" fill="#FF00FF" transform="matrix(1.83697e-16 1 1 -1.83697e-16 1027 331)"/><text fill="#FF00FF" font-family="Aptos,Aptos_MSFontService,sans-serif" font-weight="700" font-size="19" transform="translate(1151.21 421)">flag_test_res</text><path d="M0-2 4-2 4 2 0 2ZM8-2 12-2 12 2 8 2ZM16-2 19.2788-2 19.2788 2.72123 15.2788 2.72123 15.2788 0 17.2788 2 16 2ZM19.2788 6.72123 19.2788 10.7212 15.2788 10.7212 15.2788 6.72123ZM19.2788 14.7212 19.2788 18.7212 15.2788 18.7212 15.2788 14.7212ZM19.2788 22.7212 19.2788 26.7212 15.2788 26.7212 15.2788 22.7212ZM19.2788 30.7212 19.2788 34.7212 15.2788 34.7212 15.2788 30.7212ZM19.2788 38.7212 19.2788 42.7212 15.2788 42.7212 15.2788 38.7212ZM20.1205 41.8795 24.1205 41.8795 24.1205 45.8795 20.1205 45.8795ZM28.1205 41.8795 32.1205 41.8795 32.1205 45.8795 28.1205 45.8795ZM36.1205 41.8795 40.1205 41.8795 40.1205 45.8795 36.1205 45.8795ZM38.7682 40.5273 38.7682 36.5273 42.7682 36.5273 42.7682 40.5273ZM38.7682 32.5273 38.7682 28.5273 42.7682 28.5273 42.7682 32.5273ZM38.7682 24.5273 38.7682 21.2208 42.7682 21.2208 42.7682 24.5273ZM34.7682 23.2208 40.7682 11.2208 46.7682 23.2208Z" fill="#FF00FF" transform="matrix(1.83697e-16 1 1 -1.83697e-16 1206 432)"/><text fill="#FF00FF" font-family="Aptos,Aptos_MSFontService,sans-serif" font-weight="700" font-size="19" transform="translate(918.54 524)">flag_acceleration</text><text fill="#FF00FF" font-family="Aptos,Aptos_MSFontService,sans-serif" font-weight="700" font-size="19" transform="translate(937.6 547)">flag_test_res</text><text fill="#FF00FF" font-family="Aptos,Aptos_MSFontService,sans-serif" font-weight="700" font-size="19" transform="translate(927.38 569)">Dt_test, ts_test</text><path d="M0-2 4-2 4 2 0 2ZM8-2 12-2 12 2 8 2ZM16-2 20-2 20 2 16 2ZM24-2 28-2 28 2 24 2ZM32.4781 1.52189 32.4781 5.52189 28.4781 5.52189 28.4781 1.52189ZM32.4781 9.52189 32.4781 13.5219 28.4781 13.5219 28.4781 9.52189ZM32.4781 17.5219 32.4781 21.5219 28.4781 21.5219 28.4781 17.5219ZM36.4781 22.8357 30.4781 34.8357 24.4781 22.8357Z" fill="#FF00FF" transform="matrix(-1.83697e-16 -1 -1 1.83697e-16 991.836 501.478)"/><path d="M1084 539 1088 539 1088 543 1084 543ZM1092 539 1096 539 1096 543 1092 543ZM1100 539 1104 539 1104 543 1100 543ZM1108 539 1112 539 1112 543 1108 543ZM1116 539 1120 539 1120 543 1116 543ZM1124.76 542.237 1124.76 546.237 1120.76 546.237 1120.76 542.237ZM1124.76 550.237 1124.76 554.237 1120.76 554.237 1120.76 550.237ZM1124.76 558.237 1124.76 559.614 1120.76 559.614 1120.76 558.237ZM1128.76 557.614 1122.76 569.614 1116.76 557.614Z" fill="#FF00FF"/><text fill="#FF00FF" font-family="Aptos,Aptos_MSFontService,sans-serif" font-weight="700" font-size="19" transform="translate(1049.4 111)">flag_acceleration</text><text fill="#FF00FF" font-family="Aptos,Aptos_MSFontService,sans-serif" font-weight="700" font-size="19" transform="translate(1065.45 134)">flag_train_res</text><text fill="#FF00FF" font-family="Aptos,Aptos_MSFontService,sans-serif" font-weight="700" font-size="19" transform="translate(1065.43 156)">flag_train_set</text><text fill="#FF00FF" font-family="Aptos,Aptos_MSFontService,sans-serif" font-weight="700" font-size="19" transform="translate(1028.5 178)">flag_pressure, ts_train</text><path d="M1125 190 1125 194 1121 194 1121 190ZM1125 198 1125 202 1121 202 1121 198ZM1129 201.985 1123 213.985 1117 201.985Z" fill="#FF00FF"/><path d="M1196 285.3 1196 281.3 1200 281.3 1200 285.3ZM1196 277.3 1196 273.7 1200.4 273.7 1200.4 277.7 1198 277.7 1200 275.7 1200 277.3ZM1204.4 273.7 1208.4 273.7 1208.4 277.7 1204.4 277.7ZM1212.4 273.7 1216.4 273.7 1216.4 277.7 1212.4 277.7ZM1220.4 273.7 1224.4 273.7 1224.4 277.7 1220.4 277.7ZM1228.4 273.7 1230.15 273.7 1228.15 275.7 1228.15 273.451 1232.15 273.451 1232.15 277.7 1228.4 277.7ZM1228.15 269.451 1228.15 265.451 1232.15 265.451 1232.15 269.451ZM1228.15 261.451 1228.15 257.451 1232.15 257.451 1232.15 261.451ZM1228.15 253.451 1228.15 249.451 1232.15 249.451 1232.15 253.451ZM1228.15 245.451 1228.15 241.451 1232.15 241.451 1232.15 245.451ZM1227.6 242 1223.6 242 1223.6 238 1227.6 238ZM1219.6 242 1216.15 242 1216.15 238 1219.6 238ZM1218.15 246 1206.15 240 1218.15 234Z" fill="#FF00FF"/><text fill="#FF00FF" font-family="Aptos,Aptos_MSFontService,sans-serif" font-weight="700" font-size="19" transform="translate(750.955 515)">dir_results</text><text fill="#FF00FF" font-family="Aptos,Aptos_MSFontService,sans-serif" font-weight="700" font-size="19" transform="translate(489.027 518)">flag_loaders</text><path d="M658.899 171 658.899 175 654.899 175 654.899 171ZM658.899 179 658.899 183 654.899 183 654.899 179ZM656.86 188.961 652.86 188.961 652.86 184.961 656.86 184.961ZM648.86 188.961 644.86 188.961 644.86 184.961 648.86 184.961ZM640.86 188.961 636.86 188.961 636.86 184.961 640.86 184.961ZM632.86 188.961 628.86 188.961 628.86 184.961 632.86 184.961ZM624.86 188.961 620.86 188.961 620.86 184.961 624.86 184.961ZM616.86 188.961 612.86 188.961 612.86 184.961 616.86 184.961ZM608.86 188.961 604.86 188.961 604.86 184.961 608.86 184.961ZM600.86 188.961 596.86 188.961 596.86 184.961 600.86 184.961ZM592.86 188.961 588.86 188.961 588.86 184.961 592.86 184.961ZM584.86 188.961 580.86 188.961 580.86 184.961 584.86 184.961ZM576.86 188.961 572.86 188.961 572.86 184.961 576.86 184.961ZM568.86 188.961 564.86 188.961 564.86 184.961 568.86 184.961ZM560.86 188.961 556.86 188.961 556.86 184.961 560.86 184.961ZM552.86 188.961 548.86 188.961 548.86 184.961 552.86 184.961ZM544.86 188.961 540.86 188.961 540.86 184.961 544.86 184.961ZM536.86 188.961 532.86 188.961 532.86 184.961 536.86 184.961ZM528.86 188.961 524.86 188.961 524.86 184.961 528.86 184.961ZM520.86 188.961 516.86 188.961 516.86 184.961 520.86 184.961ZM512.86 188.961 508.86 188.961 508.86 184.961 512.86 184.961ZM504.86 188.961 500.86 188.961 500.86 184.961 504.86 184.961ZM496.86 188.961 492.86 188.961 492.86 184.961 496.86 184.961ZM488.86 188.961 484.86 188.961 484.86 184.961 488.86 184.961ZM480.86 188.961 476.86 188.961 476.86 184.961 480.86 184.961ZM472.86 188.961 468.86 188.961 468.86 184.961 472.86 184.961ZM464.86 188.961 460.86 188.961 460.86 184.961 464.86 184.961ZM456.86 188.961 452.86 188.961 452.86 184.961 456.86 184.961ZM448.86 188.961 444.86 188.961 444.86 184.961 448.86 184.961ZM440.86 188.961 436.86 188.961 436.86 184.961 440.86 184.961ZM432.86 188.961 428.86 188.961 428.86 184.961 432.86 184.961ZM424.86 188.961 420.86 188.961 420.86 184.961 424.86 184.961ZM419 187.101 419 191.101 415 191.101 415 187.101ZM419 195.101 419 199.101 415 199.101 415 195.101ZM423 197.78 417 209.78 411 197.78Z" fill="#FF00FF"/><path d="M0-2 4-2 4 2 0 2ZM8-2 12-2 12 2 8 2ZM16.6778 1.32216 16.6778 5.32216 12.6778 5.32216 12.6778 1.32216ZM16.6778 9.32216 16.6778 13.3222 12.6778 13.3222 12.6778 9.32216ZM16.6778 17.3222 16.6778 21.3222 12.6778 21.3222 12.6778 17.3222ZM16.6778 25.3222 16.6778 29.3222 12.6778 29.3222 12.6778 25.3222ZM16.6778 33.3222 16.6778 37.3222 12.6778 37.3222 12.6778 33.3222ZM16.6778 41.3222 16.6778 45.3222 12.6778 45.3222 12.6778 41.3222ZM16.6778 49.3222 16.6778 53.3222 12.6778 53.3222 12.6778 49.3222ZM16.6778 57.3222 16.6778 61.3222 12.6778 61.3222 12.6778 57.3222ZM16.6778 65.3222 16.6778 69.3222 12.6778 69.3222 12.6778 65.3222ZM16.6778 73.3222 16.6778 77.3222 12.6778 77.3222 12.6778 73.3222ZM16.6778 81.3222 16.6778 85.3222 12.6778 85.3222 12.6778 81.3222ZM16.6778 89.3222 16.6778 93.3222 12.6778 93.3222 12.6778 89.3222ZM16.6778 97.3222 16.6778 101.322 12.6778 101.322 12.6778 97.3222ZM16.6778 105.322 16.6778 109.322 12.6778 109.322 12.6778 105.322ZM16.6778 113.322 16.6778 117.322 12.6778 117.322 12.6778 113.322ZM16.6778 121.322 16.6778 125.322 12.6778 125.322 12.6778 121.322ZM16.6778 129.322 16.6778 133.322 12.6778 133.322 12.6778 129.322ZM16.6778 137.322 16.6778 141.322 12.6778 141.322 12.6778 137.322ZM16.6778 145.322 16.6778 149.322 12.6778 149.322 12.6778 145.322ZM16.6778 153.322 16.6778 157.322 12.6778 157.322 12.6778 153.322ZM16.6778 161.322 16.6778 165.322 12.6778 165.322 12.6778 161.322ZM16.6778 169.322 16.6778 173.322 12.6778 173.322 12.6778 169.322ZM16.6778 177.322 16.6778 181.322 12.6778 181.322 12.6778 177.322ZM16.6778 185.322 16.6778 189.322 12.6778 189.322 12.6778 185.322ZM16.6778 193.322 16.6778 197.322 12.6778 197.322 12.6778 193.322ZM16.6778 201.322 16.6778 205.322 12.6778 205.322 12.6778 201.322ZM16.6778 209.322 16.6778 213.322 12.6778 213.322 12.6778 209.322ZM16.6778 217.322 16.6778 221.322 12.6778 221.322 12.6778 217.322ZM16.6778 225.322 16.6778 229.322 12.6778 229.322 12.6778 225.322ZM16.6778 233.322 16.6778 237.322 12.6778 237.322 12.6778 233.322ZM17.3164 236.684 21.3164 236.684 21.3164 240.684 17.3164 240.684ZM25.3164 236.684 27.9276 236.684 27.9276 240.684 25.3164 240.684ZM25.9276 232.684 37.9276 238.684 25.9276 244.684Z" fill="#FF00FF" transform="matrix(1.83697e-16 1 1 -1.83697e-16 656 171)"/><text fill="#FF00FF" font-family="Aptos,Aptos_MSFontService,sans-serif" font-weight="700" font-size="19" transform="translate(186.49 593)">subdir_ results</text><text font-family="Aptos,Aptos_MSFontService,sans-serif" font-weight="400" font-size="19" transform="translate(530.111 459)">NO</text><text font-family="Aptos,Aptos_MSFontService,sans-serif" font-weight="400" font-size="19" transform="translate(295.854 459)">NO</text><text font-family="Aptos,Aptos_MSFontService,sans-serif" font-weight="400" font-size="19" transform="translate(985.104 461)">YES</text><text font-family="Aptos,Aptos_MSFontService,sans-serif" font-weight="400" font-size="19" transform="translate(1137.56 536)">NO</text><text font-family="Aptos,Aptos_MSFontService,sans-serif" font-weight="400" font-size="19" transform="translate(423.693 539)">YES</text><text font-family="Aptos,Aptos_MSFontService,sans-serif" font-weight="400" font-size="19" transform="translate(490.34 577)">YES</text><text font-family="Aptos,Aptos_MSFontService,sans-serif" font-weight="400" font-size="19" transform="translate(614.725 647)">NO</text><text font-family="Aptos,Aptos_MSFontService,sans-serif" font-weight="400" font-size="19" transform="translate(663.775 524)">YES</text><text fill="#FF00FF" font-family="Aptos,Aptos_MSFontService,sans-serif" font-weight="700" font-size="19" transform="translate(489.113 397)">flag_loaders</text><path d="M543.794 407 543.794 411 539.794 411 539.794 407ZM543.794 415 543.794 420.572 541.365 420.572 541.365 416.572 541.794 416.572 539.794 418.572 539.794 415ZM537.365 420.572 533.365 420.572 533.365 416.572 537.365 416.572ZM529.365 420.572 525.365 420.572 525.365 416.572 529.365 416.572ZM521.365 420.572 517.365 420.572 517.365 416.572 521.365 416.572ZM513.365 420.572 509.365 420.572 509.365 416.572 513.365 416.572ZM505.365 420.572 501.365 420.572 501.365 416.572 505.365 416.572ZM497.365 420.572 493.365 420.572 493.365 416.572 497.365 416.572ZM489.365 420.572 485.365 420.572 485.365 416.572 489.365 416.572ZM481.365 420.572 477.365 420.572 477.365 416.572 481.365 416.572ZM473.365 420.572 469.365 420.572 469.365 416.572 473.365 416.572ZM465.365 420.572 461.365 420.572 461.365 416.572 465.365 416.572ZM457.365 420.572 453.365 420.572 453.365 416.572 457.365 416.572ZM449.365 420.572 445.365 420.572 445.365 416.572 449.365 416.572ZM441.365 420.572 437.365 420.572 437.365 416.572 441.365 416.572ZM433.365 420.572 429.365 420.572 429.365 416.572 433.365 416.572ZM425.365 420.572 421.365 420.572 421.365 416.572 425.365 416.572ZM417.365 420.572 417 420.572 419 418.572 419 422.206 415 422.206 415 416.572 417.365 416.572ZM419 426.206 419 428.715 415 428.715 415 426.206ZM423 426.715 417 438.715 411 426.715Z" fill="#FF00FF"/><path d="M0-2 4-2 4 2 0 2ZM8-2 13.5717-2 13.5717 0.428333 9.57167 0.428333 9.57167 0 11.5717 2 8 2ZM13.5717 4.42833 13.5717 8.42833 9.57167 8.42833 9.57167 4.42833ZM13.5717 12.4283 13.5717 16.4283 9.57167 16.4283 9.57167 12.4283ZM13.5717 20.4283 13.5717 24.4283 9.57167 24.4283 9.57167 20.4283ZM13.5717 28.4283 13.5717 32.4283 9.57167 32.4283 9.57167 28.4283ZM13.5717 36.4283 13.5717 40.4283 9.57167 40.4283 9.57167 36.4283ZM13.5717 44.4283 13.5717 48.4283 9.57167 48.4283 9.57167 44.4283ZM13.5717 52.4283 13.5717 56.4283 9.57167 56.4283 9.57167 52.4283ZM13.5717 60.4283 13.5717 64.4283 9.57167 64.4283 9.57167 60.4283ZM13.5717 68.4283 13.5717 72.4283 9.57167 72.4283 9.57167 68.4283ZM13.5717 76.4283 13.5717 80.4283 9.57167 80.4283 9.57167 76.4283ZM13.5717 84.4283 13.5717 88.4283 9.57167 88.4283 9.57167 84.4283ZM13.5717 92.4283 13.5717 96.4283 9.57167 96.4283 9.57167 92.4283ZM13.5717 100.428 13.5717 104.428 9.57167 104.428 9.57167 100.428ZM13.5717 108.428 13.5717 112.428 9.57167 112.428 9.57167 108.428ZM12.8954 113.105 16.8954 113.105 16.8954 117.105 12.8954 117.105ZM20.8954 113.105 21.7146 113.105 21.7146 117.105 20.8954 117.105ZM19.7146 109.105 31.7146 115.105 19.7146 121.105Z" fill="#FF00FF" transform="matrix(1.83697e-16 1 1 -1.83697e-16 541 407)"/><path d="M0-2 4-2 4 2 0 2ZM8-2 11.4673-2 11.4673 2.53271 7.46729 2.53271 7.46729 0 9.46729 2 8 2ZM11.4673 6.5327 11.4673 10.5327 7.46729 10.5327 7.46729 6.5327ZM11.4673 14.5327 11.4673 18.5327 7.46729 18.5327 7.46729 14.5327ZM11.4673 22.5327 11.4673 26.5327 7.46729 26.5327 7.46729 22.5327ZM11.4673 30.5327 11.4673 34.5327 7.46729 34.5327 7.46729 30.5327ZM11.4673 38.5327 11.4673 42.5327 7.46729 42.5327 7.46729 38.5327ZM11.4673 46.5327 11.4673 50.5327 7.46729 50.5327 7.46729 46.5327ZM11.4673 54.5327 11.4673 58.5327 7.46729 58.5327 7.46729 54.5327ZM11.4673 62.5327 11.4673 63.241 9.46729 61.241 12.7589 61.241 12.7589 65.2411 7.46729 65.2411 7.46729 62.5327ZM16.7589 61.241 17.506 61.241 17.506 65.2411 16.7589 65.2411ZM15.506 57.241 27.506 63.241 15.506 69.2411Z" fill="#FF00FF" transform="matrix(1.83697e-16 1 1 -1.83697e-16 541 528)"/><path d="M798 525 798 529 794 529 794 525ZM798 533 798 537 794 537 794 533ZM798 541 798 545 794 545 794 541ZM798 549 798 553 794 553 794 549ZM802 554.096 796 566.096 790 554.096Z" fill="#FF00FF"/><path d="M333.02 585 337.02 585.04 336.98 589.04 332.98 589ZM341.019 585.079 343.165 585.101 343.125 589.1 340.98 589.079ZM341.205 581.081 353.145 587.2 341.086 593.08Z" fill="#FF00FF"/><text font-family="Aptos,Aptos_MSFontService,sans-serif" font-weight="400" font-size="19" transform="translate(425.814 787)">YES</text><text font-family="Aptos,Aptos_MSFontService,sans-serif" font-weight="400" font-size="19" transform="translate(857.606 788)">YES</text><text font-family="Aptos,Aptos_MSFontService,sans-serif" font-weight="400" font-size="19" transform="translate(518.571 711)">NO</text><text font-family="Aptos,Aptos_MSFontService,sans-serif" font-weight="400" font-size="19" transform="translate(952.54 713)">NO</text><text font-family="Aptos,Aptos_MSFontService,sans-serif" font-weight="400" font-size="19" transform="translate(423.693 1030)">YES</text><text font-family="Aptos,Aptos_MSFontService,sans-serif" font-weight="400" font-size="19" transform="translate(578.983 1183)">YES</text><text font-family="Aptos,Aptos_MSFontService,sans-serif" font-weight="400" font-size="19" transform="translate(729.905 950)">YES</text><path d="M0 2-24 2-22 0-22 282.931-24 280.931 33.2024 280.931 33.2024 295.597 29.2024 295.597 29.2024 282.931 31.2024 284.931-26 284.931-26-2 0-2ZM37.2024 293.597 31.2024 305.597 25.2024 293.597Z" transform="matrix(-6.12323e-17 -1 -1 6.12323e-17 850.597 992.202)"/><text font-family="Aptos,Aptos_MSFontService,sans-serif" font-weight="400" font-size="19" transform="translate(862.163 1013)">NO</text><text font-family="Aptos,Aptos_MSFontService,sans-serif" font-weight="400" font-size="19" transform="translate(261.103 950)">NO</text><text font-family="Aptos,Aptos_MSFontService,sans-serif" font-weight="400" font-size="19" transform="translate(380.522 1244)">NO</text><text fill="#FF00FF" font-family="Aptos,Aptos_MSFontService,sans-serif" font-weight="700" font-size="19" transform="translate(153.578 800)">flag_truncation</text><text fill="#FF00FF" font-family="Aptos,Aptos_MSFontService,sans-serif" font-weight="700" font-size="19" transform="translate(146.431 823)">truncation_value</text><path d="M215.959 777.567 215.848 773.568 219.846 773.457 219.957 777.456ZM215.737 769.57 215.626 765.571 219.624 765.46 219.735 769.459ZM215.515 761.573 215.404 757.574 219.402 757.463 219.513 761.462ZM215.293 753.576 215.278 753.052 219.277 752.941 219.291 753.465ZM211.335 755.162 217 743 223.331 754.829Z" fill="#FF00FF"/><text fill="#FF00FF" font-family="Aptos,Aptos_MSFontService,sans-serif" font-weight="700" font-size="19" transform="translate(615.352 843)">subdir_ results</text><text fill="#FF00FF" font-family="Aptos,Aptos_MSFontService,sans-serif" font-weight="700" font-size="19" transform="translate(272.719 675)">flag_test_res</text><path d="M396 668 400 668 400 672 396 672ZM404 668 408 668 408 672 404 672ZM412 668 416 668 416 672 412 672ZM418.99 673.01 418.99 677.01 414.99 677.01 414.99 673.01ZM422.99 678.729 416.99 690.729 410.99 678.729Z" fill="#FF00FF"/><text fill="#FF00FF" font-family="Aptos,Aptos_MSFontService,sans-serif" font-weight="700" font-size="19" transform="translate(794.999 655)">flag_loaders</text><path d="M849 664.971 849.057 668.971 845.058 669.028 845 665.029ZM849.115 672.97 849.172 676.97 845.173 677.028 845.115 673.028ZM849.23 680.97 849.241 681.77 845.242 681.827 845.23 681.027ZM853.212 679.713 847.385 691.798 841.214 679.885Z" fill="#FF00FF"/><path d="M755.062 835.001 759.06 835.124 758.936 839.122 754.938 838.999ZM763.058 835.248 767.056 835.371 766.933 839.369 762.935 839.246ZM767.239 831.375 779.048 837.742 766.869 843.369Z" fill="#FF00FF"/><text fill="#FF00FF" font-family="Aptos,Aptos_MSFontService,sans-serif" font-weight="700" font-size="19" transform="translate(1120.3 650)">Re, flag_pressure</text><text fill="#FF00FF" font-family="Aptos,Aptos_MSFontService,sans-serif" font-weight="700" font-size="19" transform="translate(1127.54 673)">flag_integration</text><path d="M1196.13 683 1196.13 687 1192.13 687 1192.13 683ZM1196.13 691 1196.13 695 1192.13 695 1192.13 691ZM1196.13 699 1196.13 703 1192.13 703 1192.13 699ZM1196.13 707 1196.13 711 1192.13 711 1192.13 707ZM1196.13 715 1196.13 719 1192.13 719 1192.13 715ZM1196.13 723 1196.13 725.912 1191.04 725.912 1191.04 721.912 1194.13 721.912 1192.13 723.912 1192.13 723ZM1187.04 725.912 1183.04 725.912 1183.04 721.912 1187.04 721.912ZM1179.04 725.912 1175.04 725.912 1175.04 721.912 1179.04 721.912ZM1171.04 725.912 1167.04 725.912 1167.04 721.912 1171.04 721.912ZM1163.04 725.912 1159.04 725.912 1159.04 721.912 1163.04 721.912ZM1155.04 725.912 1155 725.912 1155 721.912 1155.04 721.912ZM1157 729.912 1145 723.912 1157 717.912Z" fill="#FF00FF"/><text fill="#FF00FF" font-family="Aptos,Aptos_MSFontService,sans-serif" font-weight="700" font-size="19" transform="translate(1138.93 772)">N_process_int</text><text fill="#FF00FF" font-family="Aptos,Aptos_MSFontService,sans-serif" font-weight="700" font-size="19" transform="translate(1133.55 795)">flag_integration</text><path d="M1201.48 805 1201.48 809 1197.48 809 1197.48 805ZM1201.48 813 1201.48 817 1197.48 817 1197.48 813ZM1201.48 821 1201.48 825 1197.48 825 1197.48 821ZM1201.48 829 1201.48 833 1197.48 833 1197.48 829ZM1201.48 837 1201.48 839.784 1196.26 839.784 1196.26 835.784 1199.48 835.784 1197.48 837.784 1197.48 837ZM1192.26 839.784 1188.26 839.784 1188.26 835.784 1192.26 835.784ZM1184.26 839.784 1180.26 839.784 1180.26 835.784 1184.26 835.784ZM1176.26 839.784 1172.26 839.784 1172.26 835.784 1176.26 835.784ZM1171 843.784 1159 837.784 1171 831.784Z" fill="#FF00FF"/><text fill="#FF00FF" font-family="Aptos,Aptos_MSFontService,sans-serif" font-weight="700" font-size="19" transform="translate(796.445 895)">flag_test_res</text><path d="M853 905 853 909 849 909 849 905ZM853 913 853 917 849 917 849 913ZM857 915.953 851 927.953 845 915.953Z" fill="#FF00FF"/><text fill="#FF00FF" font-family="Aptos,Aptos_MSFontService,sans-serif" font-weight="700" font-size="19" transform="translate(586.299 899)">Dt_test, ts_test</text><path d="M653 910 653 914 649 914 649 910ZM653 918 653 922 649 922 649 918ZM653 926 653 930 649 930 649 926ZM657 928.93 651 940.93 645 928.93Z" fill="#FF00FF"/><text fill="#FF00FF" font-family="Aptos,Aptos_MSFontService,sans-serif" font-weight="700" font-size="19" transform="translate(454.32 1136)">flag_acceleration</text><path d="M0-2 4-2 4 2 0 2ZM8-2 12-2 12 2 8 2ZM16-2 19.9317-2 19.9317 2.06835 15.9317 2.06835 15.9317 0 17.9317 2 16 2ZM19.9317 6.06835 19.9317 10.0683 15.9317 10.0683 15.9317 6.06835ZM19.9317 14.0683 19.9317 18.0683 15.9317 18.0683 15.9317 14.0683ZM23.9317 17.4562 17.9317 29.4562 11.9317 17.4562Z" fill="#FF00FF" transform="matrix(-1 1.22465e-16 1.22465e-16 1 435.932 1130)"/><text fill="#FF00FF" font-family="Aptos,Aptos_MSFontService,sans-serif" font-weight="700" font-size="19" transform="translate(247.285 887)">flag_integration</text><text fill="#FF00FF" font-family="Aptos,Aptos_MSFontService,sans-serif" font-weight="700" font-size="19" transform="translate(259.185 910)">flag_sparsify</text><path d="M390 890 394 890 394 894 390 894ZM398 890 402 890 402 894 398 894ZM406 890 410 890 410 894 406 894ZM414 890 419.509 890 419.509 892.491 415.509 892.491 415.509 892 417.509 894 414 894ZM419.509 896.491 419.509 900.491 415.509 900.491 415.509 896.491ZM419.509 904.491 419.509 908.491 415.509 908.491 415.509 904.491ZM423.509 910.134 417.509 922.134 411.509 910.134Z" fill="#FF00FF"/><text fill="#FF00FF" font-family="Aptos,Aptos_MSFontService,sans-serif" font-weight="700" font-size="19" transform="translate(939.444 1159)">flag_save_fields</text><text fill="#FF00FF" font-family="Aptos,Aptos_MSFontService,sans-serif" font-weight="700" font-size="19" transform="translate(959.537 1182)">flag_savers</text><text fill="#FF00FF" font-family="Aptos,Aptos_MSFontService,sans-serif" font-weight="700" font-size="19" transform="translate(960.19 1204)">dir_ results</text><text fill="#FF00FF" font-family="Aptos,Aptos_MSFontService,sans-serif" font-weight="700" font-size="19" transform="translate(944.437 1226)">subdir_ results</text><path d="M926.303 1189.28 922.303 1189.28 922.303 1185.28 926.303 1185.28ZM918.303 1189.28 914.303 1189.28 914.303 1185.28 918.303 1185.28ZM910.303 1189.28 906.303 1189.28 906.303 1185.28 910.303 1185.28ZM902.303 1189.28 899 1189.28 899 1184.58 903 1184.58 903 1187.28 901 1185.28 902.303 1185.28ZM899 1180.58 899 1176.58 903 1176.58 903 1180.58ZM899 1172.58 899 1168.58 903 1168.58 903 1172.58ZM899 1164.58 899 1160.58 903 1160.58 903 1164.58ZM899 1156.58 899 1152.58 903 1152.58 903 1156.58ZM899 1148.58 899 1144.58 903 1144.58 903 1148.58ZM899 1140.58 899 1136.58 903 1136.58 903 1140.58ZM899 1132.58 899 1128.58 903 1128.58 903 1132.58ZM899 1124.58 899 1120.58 903 1120.58 903 1124.58ZM899 1116.58 899 1112.58 903 1112.58 903 1116.58ZM895 1111 901 1099 907 1111Z" fill="#FF00FF"/></g></svg>